{"title":"Gettysburg  [War Drama] 1993 DVDRip x264 720p [=Faith=]","uid":9938010,"size":4169624671,"categoryP":"video","categoryS":"hd___movies","magnet":"?xt=urn:btih:afd32e06b59ca7f4f219ae43aa6c6c9378ee45a8&amp;dn=Gettysburg++%5BWar+Drama%5D+1993+DVDRip+x264+720p+%5B%3DFaith%3D%5D&amp;tr=udp%3A%2F%2Ftracker.openbittorrent.com%3A80&amp;tr=udp%3A%2F%2Fopen.demonii.com%3A1337&amp;tr=udp%3A%2F%2Ftracker.coppersurfer.tk%3A6969&amp;tr=udp%3A%2F%2Fexodus.desync.com%3A6969","seeders":5,"leechers":0,"uploader":"Faithwyn","files":4,"time":1397182790,"description":"                                Gettysburg\n\nGettysburg is the four and 1/4 hour depiction of the historical and personal events surrounding and including the decisive American civil war battle features thousands of civil war re-enactors marching over the exact ground that the federal army and the army of North Virginia fought on. The defense of the Little Round Top and Pickett's Charge are highlighted in the actual three day battle which is surrounded by the speeches of the commanding officers and the personal reflections of the fighting men. Based upon the novel 'The Killer Angels'. \n\nFilm:\nTitle: Gettysburg\nGenre: Drama | History | War\nReleased: 8 October 1993 (USA)\nDirector: Ronald F. Maxwell\nWriters: Michael Shaara (novel), Ronald F. Maxwell (screenplay)\nStars: Tom Berenger, Martin Sheen, Stephen Lang, Richard Jordan, \n       Jeff Daniels, Sam Elliott\nIMDB Rating: 7.7\n\nGeneral\nComplete name                            : Gettysburg\nFormat                                   : MPEG-4\nFormat profile                           : Base Media / Version 2\nCodec ID                                 : mp42\nFile size                                : 2.05 GiB\nDuration                                 : 4h 14mn\nOverall bit rate mode                    : Variable\nOverall bit rate                         : 2 070 Kbps\nEncoded date                             : UTC 2014-04-10 22:15:39\nTagged date                              : UTC 2014-04-10 23:19:34\nWriting application                      : HandBrake 0.9.9 2013052900\n\nVideo\nID                                       : 1\nFormat                                   : AVC\nFormat/Info                              : Advanced Video Codec\nFormat profile                           : &lt;a class=&quot;__cf_email__&quot; href=&quot;/cdn-cgi/l/email-protection&quot; data-cfemail=&quot;cc81ada5a28c80f8e2fc&quot;&gt;[email&amp;#160;protected]&lt;/a&gt;&lt;script cf-hash='f9e31' type=&quot;text/javascript&quot;&gt;\n/* &lt;![CDATA[ */!function(){try{var t=&quot;currentScript&quot;in document?document.currentScript:function(){for(var t=document.getElementsByTagName(&quot;script&quot;),e=t.length;e--;)if(t[e].getAttribute(&quot;cf-hash&quot;))return t[e]}();if(t&amp;&amp;t.previousSibling){var e,r,n,i,c=t.previousSibling,a=c.getAttribute(&quot;data-cfemail&quot;);if(a){for(e=&quot;&quot;,r=parseInt(a.substr(0,2),16),n=2;a.length-n;n+=2)i=parseInt(a.substr(n,2),16)^r,e+=String.fromCharCode(i);e=document.createTextNode(e),c.parentNode.replaceChild(e,c)}}}catch(u){}}();/* ]]&gt; */&lt;/script&gt;\nFormat settings, CABAC                   : Yes\nFormat settings, ReFrames                : 5 frames\nCodec ID                                 : avc1\nCodec ID/Info                            : Advanced Video Coding\nPart 1 Duration                          : 2h 22mn\nPart 2 Duration                          : 1h 52mn\nTotal Runtime                            : 4h 14mn\nBit rate mode                            : Variable\nBit rate                                 : 1 872 Kbps\nWidth                                    : 720 pixels\nHeight                                   : 400 pixels\nDisplay aspect ratio                     : 16:9\nFrame rate mode                          : Variable\nFrame rate                               : 24.000 fps\nMinimum frame rate                       : 8.665 fps\nMaximum frame rate                       : 29.970 fps\nColor space                              : YUV\nChroma subsampling                       : 4:2:0\nBit depth                                : 8 bits\nScan type                                : Progressive\nBits/(Pixel*Frame)                       : 0.271\nStream size                              : 1.86 GiB (90%)\nWriting library                          : x264 core 130 r2273 b3065e6\nEncoded date                             : UTC 2014-04-10 22:15:39\nTagged date                              : UTC 2014-04-10 23:19:34\nColor primaries                          : BT.601 NTSC\nTransfer characteristics                 : BT.709\nMatrix coefficients                      : BT.601\n\nAudio\nID                                       : 2\nFormat                                   : AAC\nFormat/Info                              : Advanced Audio Codec\nFormat profile                           : LC\nCodec ID                                 : 40\nBit rate mode                            : Variable\nBit rate                                 : 192 Kbps\nMaximum bit rate                         : 299 Kbps\nChannel(s)                               : 2 channels\nChannel positions                        : Front: L R\nSampling rate                            : 48.0 KHz\nCompression mode                         : Lossy\nDelay relative to video                  : 165ms\nStream size                              : 195 MiB (9%)\nLanguage                                 : English\nEncoded date                             : UTC 2014-04-10 22:15:39\nTagged date                              : UTC 2014-04-10 23:19:34\n\n\n\n","torrent":{"xt":"urn:btih:afd32e06b59ca7f4f219ae43aa6c6c9378ee45a8","amp;dn":"Gettysburg++%5BWar+Drama%5D+1993+DVDRip+x264+720p+%5B%3DFaith%3D%5D","amp;tr":["udp%3A%2F%2Ftracker.openbittorrent.com%3A80","udp%3A%2F%2Fopen.demonii.com%3A1337","udp%3A%2F%2Ftracker.coppersurfer.tk%3A6969","udp%3A%2F%2Fexodus.desync.com%3A6969"],"infoHash":"afd32e06b59ca7f4f219ae43aa6c6c9378ee45a8","infoHashBuffer":{"type":"Buffer","data":[175,211,46,6,181,156,167,244,242,25,174,67,170,108,108,147,120,238,69,168]},"announce":[],"urlList":[]}}